<?xml version="1.0" encoding="utf-8"?>
<!-- Generator: Adobe Illustrator 18.0.0, SVG Export Plug-In . SVG Version: 6.00 Build 0)  -->
<!DOCTYPE svg PUBLIC "-//W3C//DTD SVG 1.1//EN" "http://www.w3.org/Graphics/SVG/1.1/DTD/svg11.dtd">
<svg version="1.1" id="Layer_1" xmlns="http://www.w3.org/2000/svg" xmlns:xlink="http://www.w3.org/1999/xlink" x="0px" y="0px"
	 viewBox="0 0 200 200" enable-background="new 0 0 200 200" xml:space="preserve">
<path fill="#F06B48" d="M105.8,153.4H16c-1.6,0-3,1.4-3,3v18.4c0,5,3.6,9.4,8.4,10.4c0.6,0.6,1.4,1,2.4,1H98
	c5.8,0,10.6-4.8,10.6-10.6c0-0.2,0-0.4,0-0.4c0-0.2,0-0.2,0-0.4v-18.4C108.8,154.6,107.4,153.4,105.8,153.4z"/>
<path fill="#F06B48" d="M127.8,23.8l-21-7c-0.4-0.2-0.6-0.2-1-0.2H16c-1.6,0-3,1.4-3,3v49c0,1.6,1.4,3,3,3h23.6L26.8,131L15,135.8
	c-1.2,0.4-1.8,1.6-1.8,2.8v6.6c0,1.6,1.4,3,3,3h89.6c1.6,0,3-1.4,3-3v-8c0-1.4-1-2.6-2.4-3l-26-5l3-22.8l7-3
	c0.8-0.4,1.6-1.2,1.8-2.2l5-25.2c0.4-1.6-0.6-3.2-2.2-3.6l-4.2-1V70l15.4-0.4c0.6,0,1.2-0.2,1.8-0.6l21.2-16.6
	c0.8-0.6,1.2-1.4,1.2-2.4V26.6C130,25.4,129,24.2,127.8,23.8z"/>
<path fill="#F06B48" d="M149,23.6h-11.6c-1.6,0-3,1.4-3,3v22c0,1.6,1.4,3,3,3H149c1.6,0,3-1.4,3-3v-22C152,25,150.6,23.6,149,23.6z"
	/>
<path fill="#F06B48" d="M193,34.6L193,34.6l-32,0.2v-2.2c0-1.6-1.4-3-3-3s-3,1.4-3,3V43c0,1.6,1.4,3,3,3s3-1.4,3-3v-2.2l32-0.2
	c1.6,0,3-1.4,3-3S194.6,34.6,193,34.6z"/>
</svg>
