<?xml version="1.0" encoding="utf-8"?>
<!-- Generator: Adobe Illustrator 18.0.0, SVG Export Plug-In . SVG Version: 6.00 Build 0)  -->
<!DOCTYPE svg PUBLIC "-//W3C//DTD SVG 1.1//EN" "http://www.w3.org/Graphics/SVG/1.1/DTD/svg11.dtd">
<svg version="1.1" id="Layer_1" xmlns="http://www.w3.org/2000/svg" xmlns:xlink="http://www.w3.org/1999/xlink" x="0px" y="0px"
	 viewBox="0 0 200 200" enable-background="new 0 0 200 200" xml:space="preserve">
<path fill="#2BA6CB" d="M179.4,66.3H130c-2.5-5.6-2.5-11.3-0.6-16.9c3.1-10,8.8-28.1-7.5-40.6c-5-3.8-11.2-5.6-18.1-5.6
	c-10,0-18.8,4.4-24.4,12.5c-10,13.8-11.9,25.6-11.3,40.6c0,6.9-1.2,9.4-1.2,9.4H39.4c-20.6,0-35.6,11.9-37.5,30
	c-0.6,10-0.6,18.7,0.6,30.6c1.9,13.8,3.8,25.6,6.3,32.5c3.7,15,17.5,30,35,30h135.6c5,0,10-1.9,13.8-5.6c3.8-3.8,5.6-8.7,5.6-13.8
	v-85C198.8,73.8,190,66.3,179.4,66.3z M121.9,160c-2.5,6.3-8.8,13.1-13.8,13.1H43.8c-4.4,0-9.4-1.9-12.5-5l0,0
	c-8.1-8.1,0.6-11.3,5-11.9c1.3,0,1.9-1.3,2.5-2.5v-0.6c0-0.6,0-1.3-0.6-1.9c-0.6-0.6-1.3-1.3-1.9-1.3c-11.3,0-17.5-1.9-16.9-8.8
	c1.9-3.1,7.5-5.6,11.2-6.9c1.9-0.6,3.1-1.9,3.1-3.8v-1.3c0-1.9-1.2-3.1-3.1-3.1H30c-8.8,0-11.9-2.5-13.1-5c-0.6-1.9-1.3-1.9-0.6-5
	c1.3-6.9,9.4-8.1,14.4-8.7c1.9,0,3.1-1.9,3.1-3.8v-0.6c0-1.9-1.3-3.8-3.1-3.8c-15-1.3-11.9-9.4-11.9-10l0,0l0,0l0,0l0,0
	c4.4-6.9,15.6-8.1,19.4-8.1h26.2c0,0,0.6,0,1.3,0c4.4,0,8.1-1.3,11.3-4.4c4.4-4.4,6.3-11.3,5.6-20.6C81.9,43.1,83.1,35,91.2,25
	c5-6.9,15-8.1,21.2-3.1c5,3.8,4.4,8.1,1.9,23.8c-3.8,31.3,11.2,46.3,14.4,76.3C130,136.3,125,151.3,121.9,160z M182.5,94.4H150
	c-4.4,0-8.1-3.8-8.1-8.1s3.8-8.1,8.1-8.1h32.5c4.4,0,8.1,3.8,8.1,8.1S186.9,94.4,182.5,94.4z"/>
</svg>
