<?xml version="1.0" encoding="utf-8"?>
<!-- Generator: Adobe Illustrator 18.0.0, SVG Export Plug-In . SVG Version: 6.00 Build 0)  -->
<!DOCTYPE svg PUBLIC "-//W3C//DTD SVG 1.1//EN" "http://www.w3.org/Graphics/SVG/1.1/DTD/svg11.dtd">
<svg version="1.1" id="Capa_1" xmlns="http://www.w3.org/2000/svg" xmlns:xlink="http://www.w3.org/1999/xlink" x="0px" y="0px"
	 viewBox="0 0 21 21" enable-background="new 0 0 21 21" xml:space="preserve">
<g>
	<path fill="#EDEDED" d="M18.7,0H2.3C1,0,0,1,0,2.3v16.4C0,20,1,21,2.3,21h16.4c1.3,0,2.3-1,2.3-2.3V2.3C21,1,20,0,18.7,0z M19.3,19
		L19.3,19H1.7V4.7h17.6V19z"/>
	<path fill="#EDEDED" d="M8.8,13.1l-1.1,5.1l2.8-2l2.8,2l-1-5.2c1.2-0.7,2.1-1.9,2.1-3.4c0-2.1-1.7-3.9-3.9-3.9
		c-2.1,0-3.9,1.7-3.9,3.9C6.6,11.1,7.5,12.4,8.8,13.1z M10.5,6.8c1.5,0,2.8,1.3,2.8,2.8c0,1.5-1.3,2.8-2.8,2.8
		c-1.5,0-2.8-1.3-2.8-2.8C7.7,8.1,9,6.8,10.5,6.8z"/>
</g>
</svg>
