<?xml version="1.0" encoding="utf-8"?>
<!-- Generator: Adobe Illustrator 16.0.4, SVG Export Plug-In . SVG Version: 6.00 Build 0)  -->
<!DOCTYPE svg PUBLIC "-//W3C//DTD SVG 1.1//EN" "http://www.w3.org/Graphics/SVG/1.1/DTD/svg11.dtd">
<svg version="1.1" id="Layer_1" xmlns="http://www.w3.org/2000/svg" xmlns:xlink="http://www.w3.org/1999/xlink" x="0px" y="0px"
	 width="29.535px" height="29.344px" viewBox="0 0 29.535 29.344" enable-background="new 0 0 29.535 29.344" xml:space="preserve">
<path d="M12.646,10.239l-2.419,12.694h-0.002L0,24.448l13.643,4.896l12.146-1.632l3.746-15.817L12.646,10.239z M10.247,27.434
	l-3.348-1.277l1.613-0.217l3.757,1.256L10.247,27.434z M24.68,26.385l-13.512-3.822l2.17-11.207l14.496,1.704L24.68,26.385z
	 M8.535,9.411h1.61v1.532h-1.61V9.411z M8.954,7.26H7.337c0.015-0.241,0.064-0.482,0.147-0.717C7.566,6.31,7.692,6.1,7.862,5.913
	c0.171-0.185,0.389-0.336,0.655-0.45c0.266-0.117,0.59-0.176,0.971-0.176c0.376,0,0.694,0.05,0.952,0.152
	c0.258,0.1,0.467,0.23,0.627,0.386c0.16,0.158,0.278,0.331,0.352,0.519c0.075,0.188,0.117,0.368,0.128,0.538
	c0,0.237-0.032,0.43-0.093,0.576s-0.143,0.27-0.244,0.368c-0.101,0.098-0.212,0.178-0.336,0.243
	c-0.124,0.064-0.251,0.129-0.379,0.197c-0.088,0.047-0.16,0.093-0.217,0.139c-0.057,0.047-0.102,0.095-0.132,0.147
	c-0.03,0.052-0.052,0.111-0.066,0.179c-0.013,0.066-0.019,0.143-0.019,0.23H8.629C8.624,8.885,8.621,8.788,8.621,8.668
	c0-0.123,0.016-0.25,0.047-0.378c0.03-0.129,0.084-0.257,0.162-0.38C8.908,7.788,9.021,7.684,9.171,7.6
	c0.061-0.032,0.134-0.065,0.217-0.101c0.083-0.034,0.161-0.074,0.236-0.12c0.073-0.043,0.137-0.096,0.189-0.156
	C9.864,7.161,9.89,7.086,9.89,6.998c0-0.265-0.148-0.396-0.448-0.396c-0.186,0-0.318,0.067-0.395,0.201
	C8.969,6.938,8.938,7.09,8.954,7.26z M17.941,18.733l1.801,1.218l-1.158,1.715l-1.803-1.218L17.941,18.733z M23.49,16.631
	c0.061,0.297,0.061,0.58,0.002,0.848c-0.06,0.267-0.148,0.5-0.265,0.698c-0.179,0.267-0.358,0.458-0.539,0.575
	c-0.183,0.118-0.364,0.193-0.554,0.227c-0.186,0.037-0.372,0.041-0.561,0.021c-0.188-0.022-0.379-0.044-0.574-0.065
	c-0.133-0.016-0.248-0.018-0.348-0.008c-0.099,0.008-0.184,0.029-0.259,0.063c-0.073,0.036-0.144,0.084-0.208,0.149
	s-0.13,0.146-0.197,0.244l-1.604-1.082c0.053-0.091,0.123-0.201,0.214-0.336c0.094-0.138,0.207-0.268,0.339-0.388
	c0.132-0.122,0.289-0.222,0.469-0.302c0.182-0.082,0.387-0.111,0.616-0.09c0.091,0.012,0.198,0.029,0.317,0.051
	c0.119,0.023,0.238,0.037,0.354,0.045c0.117,0.008,0.228-0.004,0.332-0.035c0.104-0.03,0.19-0.094,0.257-0.191
	c0.198-0.296,0.133-0.556-0.203-0.783c-0.207-0.139-0.406-0.164-0.595-0.071c-0.188,0.09-0.338,0.239-0.448,0.44l-1.813-1.225
	c0.202-0.257,0.437-0.49,0.707-0.689c0.271-0.201,0.569-0.34,0.901-0.42c0.33-0.079,0.688-0.083,1.074-0.012
	c0.385,0.07,0.793,0.25,1.221,0.538c0.422,0.286,0.738,0.583,0.951,0.89S23.425,16.334,23.49,16.631z M1.09,19.519l-0.91-0.073
	l0.077-0.955l0.91,0.073L1.09,19.519z M2.794,19.236c0.009-0.11-0.024-0.192-0.1-0.246c-0.076-0.053-0.165-0.078-0.268-0.077
	l0.08-0.961c0.143,0.021,0.281,0.062,0.418,0.123c0.134,0.06,0.253,0.146,0.356,0.256c0.101,0.108,0.18,0.246,0.236,0.41
	c0.056,0.163,0.076,0.358,0.057,0.586c-0.018,0.224-0.065,0.409-0.135,0.559c-0.073,0.147-0.16,0.267-0.261,0.353
	c-0.102,0.09-0.211,0.15-0.326,0.186c-0.115,0.035-0.223,0.053-0.326,0.051c-0.141-0.013-0.253-0.041-0.337-0.084
	c-0.085-0.043-0.153-0.098-0.208-0.162c-0.052-0.064-0.096-0.135-0.129-0.213c-0.032-0.078-0.064-0.154-0.098-0.232
	c-0.023-0.057-0.047-0.102-0.072-0.137c-0.025-0.037-0.052-0.064-0.081-0.084c-0.03-0.023-0.064-0.039-0.102-0.051
	c-0.04-0.009-0.086-0.017-0.138-0.021l0.069-0.851c0.047,0,0.105,0.002,0.176,0.008c0.074,0.006,0.148,0.022,0.223,0.047
	c0.075,0.025,0.147,0.062,0.217,0.115c0.07,0.054,0.126,0.123,0.167,0.217c0.016,0.039,0.033,0.082,0.05,0.135
	c0.017,0.05,0.038,0.099,0.06,0.145c0.023,0.049,0.052,0.088,0.086,0.121c0.033,0.035,0.076,0.055,0.129,0.059
	C2.694,19.498,2.779,19.416,2.794,19.236z M25.117,6.579l0.254,0.878l-0.923,0.266l-0.253-0.878L25.117,6.579z M23.154,5.809
	c-0.031-0.141-0.042-0.287-0.033-0.435c0.008-0.148,0.047-0.289,0.112-0.424C23.3,4.816,23.4,4.694,23.535,4.583
	c0.131-0.11,0.309-0.197,0.526-0.26c0.215-0.062,0.405-0.085,0.569-0.071c0.164,0.015,0.307,0.056,0.424,0.119
	s0.213,0.143,0.287,0.24c0.072,0.096,0.127,0.191,0.162,0.286c0.039,0.137,0.053,0.252,0.041,0.347
	c-0.012,0.094-0.037,0.177-0.078,0.25c-0.041,0.074-0.092,0.137-0.154,0.196c-0.061,0.057-0.121,0.114-0.184,0.175
	c-0.043,0.04-0.078,0.079-0.102,0.116c-0.025,0.034-0.043,0.07-0.052,0.104c-0.009,0.035-0.013,0.073-0.009,0.114
	c0.004,0.04,0.012,0.085,0.027,0.135l-0.82,0.236c-0.016-0.043-0.033-0.099-0.053-0.166c-0.021-0.072-0.033-0.147-0.037-0.227
	c-0.002-0.078,0.008-0.16,0.031-0.243c0.024-0.085,0.073-0.161,0.145-0.233c0.031-0.029,0.066-0.06,0.107-0.095
	c0.041-0.034,0.079-0.068,0.115-0.106c0.035-0.038,0.062-0.078,0.082-0.123c0.02-0.043,0.021-0.09,0.008-0.141
	c-0.043-0.151-0.15-0.201-0.322-0.153c-0.105,0.032-0.17,0.093-0.193,0.182c-0.021,0.089-0.016,0.182,0.023,0.276L23.154,5.809z
	 M18.018,8.64l0.556,0.055l-0.052,0.531L17.966,9.17L18.018,8.64z M18.238,7.911l-0.56-0.054c0.012-0.084,0.038-0.165,0.073-0.243
	c0.037-0.079,0.088-0.147,0.153-0.206c0.063-0.058,0.146-0.105,0.242-0.135c0.097-0.031,0.21-0.039,0.343-0.026
	c0.129,0.013,0.237,0.041,0.322,0.084c0.086,0.042,0.154,0.095,0.204,0.155c0.049,0.06,0.085,0.124,0.104,0.191
	c0.019,0.068,0.026,0.13,0.025,0.19c-0.007,0.083-0.025,0.147-0.053,0.196c-0.026,0.05-0.059,0.089-0.096,0.121
	c-0.039,0.028-0.08,0.052-0.125,0.071c-0.045,0.018-0.093,0.036-0.139,0.056c-0.031,0.014-0.059,0.026-0.08,0.041
	s-0.037,0.029-0.05,0.046s-0.022,0.037-0.028,0.06c-0.008,0.024-0.013,0.05-0.015,0.079L18.064,8.49
	c0.001-0.028,0.003-0.062,0.008-0.103c0.004-0.044,0.014-0.086,0.028-0.13s0.038-0.086,0.069-0.126
	c0.031-0.041,0.074-0.072,0.129-0.097c0.022-0.007,0.05-0.017,0.078-0.028c0.031-0.009,0.059-0.02,0.086-0.032
	c0.027-0.013,0.051-0.029,0.07-0.05c0.021-0.019,0.032-0.044,0.035-0.074c0.008-0.09-0.039-0.141-0.143-0.152
	c-0.064-0.006-0.113,0.014-0.145,0.057S18.234,7.851,18.238,7.911z M15.08,19.92c0.02,0.069,0.028,0.131,0.026,0.189
	c-0.008,0.084-0.025,0.148-0.052,0.197c-0.027,0.049-0.059,0.09-0.097,0.119c-0.039,0.03-0.08,0.055-0.125,0.073
	c-0.046,0.019-0.091,0.036-0.138,0.056c-0.032,0.012-0.059,0.026-0.08,0.041c-0.021,0.016-0.038,0.028-0.051,0.045
	c-0.012,0.019-0.022,0.039-0.028,0.061c-0.007,0.023-0.012,0.051-0.016,0.078l-0.495-0.047c0.001-0.027,0.004-0.062,0.008-0.104
	c0.004-0.043,0.013-0.086,0.029-0.129c0.014-0.043,0.037-0.085,0.068-0.126c0.032-0.041,0.074-0.072,0.129-0.095
	c0.023-0.01,0.049-0.019,0.078-0.028c0.03-0.01,0.058-0.021,0.086-0.032c0.027-0.014,0.051-0.029,0.071-0.051
	c0.019-0.018,0.03-0.044,0.034-0.072c0.008-0.092-0.039-0.142-0.142-0.154c-0.066-0.006-0.113,0.015-0.145,0.058
	c-0.031,0.044-0.047,0.097-0.047,0.155l-0.56-0.055c0.012-0.084,0.038-0.166,0.074-0.242c0.036-0.08,0.089-0.147,0.153-0.207
	c0.064-0.059,0.145-0.104,0.242-0.135c0.095-0.031,0.209-0.039,0.341-0.026c0.132,0.012,0.24,0.04,0.324,0.084
	c0.087,0.044,0.154,0.094,0.204,0.155C15.021,19.789,15.057,19.854,15.08,19.92z M13.973,20.885l0.558,0.055l-0.051,0.529
	l-0.557-0.054L13.973,20.885z M3.407,3.925L2.845,3.87C2.858,3.787,2.884,3.707,2.92,3.628C2.958,3.55,3.008,3.481,3.073,3.421
	c0.064-0.058,0.145-0.104,0.241-0.134C3.41,3.256,3.524,3.248,3.656,3.26c0.131,0.013,0.24,0.041,0.327,0.085
	C4.068,3.387,4.136,3.439,4.186,3.5C4.236,3.56,4.27,3.623,4.29,3.691c0.019,0.068,0.027,0.13,0.026,0.193
	C4.308,3.965,4.29,4.03,4.264,4.08c-0.027,0.048-0.06,0.087-0.097,0.119C4.129,4.227,4.087,4.251,4.042,4.27
	C3.996,4.288,3.95,4.308,3.904,4.326C3.872,4.34,3.845,4.352,3.825,4.367c-0.022,0.015-0.04,0.028-0.052,0.046
	C3.762,4.43,3.752,4.45,3.745,4.473C3.738,4.495,3.733,4.523,3.73,4.551L3.234,4.504c0.002-0.027,0.004-0.061,0.009-0.103
	c0.004-0.043,0.013-0.085,0.028-0.13C3.287,4.229,3.309,4.187,3.34,4.146C3.371,4.105,3.413,4.075,3.469,4.05
	c0.022-0.007,0.048-0.017,0.077-0.027c0.03-0.009,0.058-0.021,0.087-0.034C3.66,3.977,3.684,3.96,3.704,3.94
	c0.02-0.018,0.03-0.044,0.033-0.074C3.746,3.774,3.7,3.724,3.596,3.713C3.531,3.707,3.483,3.726,3.452,3.77
	C3.421,3.814,3.406,3.866,3.407,3.925z M3.188,4.655L3.745,4.71l-0.053,0.53L3.135,5.185L3.188,4.655z M4.565,15.214l-1.392,0.4
	L2.792,14.29l1.392-0.4L4.565,15.214z M1.219,12.728c-0.048-0.215-0.062-0.432-0.052-0.655c0.015-0.224,0.071-0.436,0.173-0.639
	c0.098-0.203,0.252-0.39,0.452-0.556c0.202-0.167,0.468-0.296,0.798-0.393c0.325-0.094,0.612-0.127,0.86-0.105
	c0.246,0.022,0.46,0.082,0.635,0.179c0.178,0.096,0.322,0.218,0.433,0.36c0.111,0.147,0.194,0.291,0.246,0.434
	c0.059,0.206,0.079,0.381,0.063,0.522c-0.017,0.143-0.057,0.268-0.12,0.379c-0.062,0.109-0.138,0.208-0.23,0.294
	c-0.091,0.088-0.183,0.176-0.278,0.265c-0.064,0.064-0.116,0.121-0.153,0.176c-0.037,0.053-0.063,0.106-0.077,0.159
	c-0.014,0.053-0.019,0.109-0.013,0.17c0.005,0.06,0.02,0.13,0.041,0.206l-1.238,0.355c-0.023-0.065-0.05-0.149-0.078-0.252
	c-0.033-0.107-0.051-0.22-0.056-0.34c-0.005-0.119,0.009-0.241,0.048-0.368c0.035-0.127,0.108-0.243,0.217-0.351
	c0.047-0.044,0.099-0.091,0.161-0.144c0.064-0.05,0.122-0.104,0.174-0.161c0.055-0.058,0.096-0.119,0.124-0.186
	c0.032-0.066,0.034-0.135,0.013-0.212c-0.065-0.226-0.227-0.304-0.486-0.229c-0.16,0.044-0.258,0.136-0.292,0.271
	c-0.032,0.136-0.023,0.274,0.034,0.419L1.219,12.728z M16.286,3.518l0.381,1.323l-1.391,0.4l-0.381-1.323L16.286,3.518z
	 M13.322,2.356c-0.047-0.215-0.063-0.432-0.05-0.656c0.014-0.224,0.07-0.437,0.17-0.64c0.1-0.202,0.252-0.388,0.454-0.555
	c0.2-0.166,0.467-0.297,0.797-0.392c0.325-0.094,0.612-0.128,0.86-0.107c0.247,0.024,0.458,0.085,0.636,0.18
	s0.323,0.216,0.434,0.362c0.111,0.144,0.192,0.288,0.246,0.433c0.059,0.206,0.077,0.38,0.062,0.521
	c-0.018,0.143-0.057,0.269-0.12,0.38c-0.063,0.109-0.138,0.207-0.231,0.293c-0.09,0.087-0.184,0.176-0.276,0.266
	c-0.066,0.063-0.116,0.119-0.153,0.175c-0.038,0.054-0.062,0.107-0.078,0.16c-0.014,0.051-0.018,0.108-0.014,0.17
	c0.007,0.06,0.021,0.13,0.042,0.205l-1.237,0.355c-0.023-0.065-0.051-0.15-0.08-0.253c-0.032-0.106-0.05-0.218-0.055-0.339
	c-0.004-0.119,0.01-0.241,0.047-0.367c0.036-0.127,0.109-0.244,0.218-0.353c0.047-0.043,0.1-0.089,0.162-0.142
	C15.219,2,15.275,1.946,15.33,1.891c0.053-0.058,0.096-0.119,0.123-0.186c0.031-0.067,0.034-0.137,0.014-0.213
	c-0.066-0.227-0.229-0.303-0.487-0.231c-0.16,0.047-0.258,0.138-0.291,0.273c-0.033,0.136-0.023,0.276,0.033,0.419L13.322,2.356z
	 M7.677,17.904l-1.065-0.2c0.041-0.159,0.103-0.31,0.187-0.455c0.083-0.142,0.191-0.265,0.326-0.367
	c0.134-0.101,0.298-0.174,0.487-0.217c0.189-0.044,0.41-0.043,0.661,0.004c0.25,0.046,0.452,0.119,0.609,0.217
	c0.157,0.099,0.278,0.21,0.364,0.332c0.086,0.124,0.142,0.255,0.168,0.388s0.032,0.256,0.018,0.369
	C9.404,18.13,9.359,18.253,9.3,18.343c-0.06,0.091-0.127,0.159-0.206,0.214c-0.079,0.051-0.162,0.09-0.252,0.116
	c-0.09,0.028-0.181,0.056-0.273,0.084c-0.064,0.019-0.118,0.041-0.161,0.066c-0.042,0.022-0.078,0.047-0.105,0.079
	c-0.025,0.029-0.047,0.066-0.065,0.107c-0.016,0.043-0.03,0.094-0.041,0.151l-0.943-0.179c0.007-0.049,0.017-0.115,0.032-0.193
	c0.014-0.081,0.041-0.162,0.077-0.246c0.036-0.081,0.087-0.157,0.154-0.229c0.067-0.072,0.154-0.125,0.262-0.162
	c0.046-0.014,0.097-0.023,0.156-0.038c0.06-0.015,0.114-0.031,0.17-0.052c0.054-0.018,0.103-0.045,0.145-0.08
	c0.041-0.034,0.067-0.078,0.079-0.14c0.032-0.171-0.05-0.276-0.247-0.313c-0.122-0.023-0.219,0.005-0.285,0.082
	C7.729,17.691,7.689,17.789,7.677,17.904z M7.138,19.271l1.06,0.198l-0.188,1.008l-1.06-0.198L7.138,19.271z"/>
</svg>
