<?xml version="1.0" encoding="utf-8"?>
<!-- Generator: Adobe Illustrator 18.0.0, SVG Export Plug-In . SVG Version: 6.00 Build 0)  -->
<!DOCTYPE svg PUBLIC "-//W3C//DTD SVG 1.1//EN" "http://www.w3.org/Graphics/SVG/1.1/DTD/svg11.dtd">
<svg version="1.1" id="Слой_1" xmlns="http://www.w3.org/2000/svg" xmlns:xlink="http://www.w3.org/1999/xlink" x="0px" y="0px"
	 viewBox="0 0 200 200" enable-background="new 0 0 200 200" xml:space="preserve">
<g>
	<path fill="#F06B48" d="M105.3,0.5c11.4,0,20.3,0.8,26.8,2.4c6.5,1.7,11.7,3.4,15.6,5.3c2.9,1.5,5.7,3.5,8.5,5.8s5.3,5.2,7.6,8.7
		s4.1,7.5,5.5,12.1c1.3,4.6,2,9.9,2,15.9c0,5.6-0.6,10.6-1.8,15.2c-1.1,4.5-2.7,8.6-4.6,12.3c-1.9,3.7-4,6.8-6.2,9.5
		s-4.4,4.9-6.5,6.6c-4.4,3.8-9.2,6.9-14.2,9.2c-5,2.3-10,4-15,5.2s-9.9,1.9-14.6,2.2c-4.7,0.3-9,0.4-12.9,0.4h-15v17.3h86.6v11H80.8
		v45.3l30.3,5.2v10.7H26.3v-10.7l27.7-5.2v-45.3H26.3v-11H54v-17.3H26.3v-11H54v-84l-27.7-5.2V0.5H105.3z M94.4,100.4
		c2.3,0,5.1-0.1,8.4-0.3c3.3-0.2,6.7-0.7,10.3-1.6c3.6-0.9,7.1-2.2,10.7-3.9c3.6-1.7,6.7-4,9.4-6.9c1.5-1.7,3.5-4.9,5.9-9.5
		s3.6-11.3,3.6-20.2c0-9.8-1.6-17.6-4.8-23.2c-3.2-5.7-6.7-10.1-10.6-13.1c-4.4-3.5-9.8-6-16-7.6s-13.1-2.5-20.6-2.5h-9.8v88.9
		L94.4,100.4L94.4,100.4z"/>
</g>
</svg>
