<?xml version="1.0" encoding="utf-8"?>
<!-- Generator: Adobe Illustrator 18.0.0, SVG Export Plug-In . SVG Version: 6.00 Build 0)  -->
<!DOCTYPE svg PUBLIC "-//W3C//DTD SVG 1.1//EN" "http://www.w3.org/Graphics/SVG/1.1/DTD/svg11.dtd">
<svg version="1.1" id="Capa_1" xmlns="http://www.w3.org/2000/svg" xmlns:xlink="http://www.w3.org/1999/xlink" x="0px" y="0px"
	 viewBox="0 0 200 200" enable-background="new 0 0 200 200" xml:space="preserve">
<g>
	<circle fill="#2BA6CB" cx="60.5" cy="148.5" r="18.1"/>
	<circle fill="#2BA6CB" cx="145.3" cy="148.5" r="18.1"/>
	<path fill="#2BA6CB" d="M63.4,108.5V59.9H49.1H35.7c-7.6,0-13.3,5.7-13.3,13.3c0,0-4.8,9.5-4.8,27.6l0,0v3.8l-3.8,2.9l0,0l0,0
		c-1,0-1.9,2.9-1.9,5.7c0,2.9,1,5.7,1.9,5.7l0,0l0,0l3.8,2.9v9.5c0,1,0,1,0,1.9c-1.9,1-2.9,2.9-2.9,4.8v4.8c0,1.9,1.9,3.8,3.8,3.8
		h17.1c1,0,1.9-1,2.9-1h2.9l0,0c0-11.4,9.5-20,20-21c11.4,0,20,9.5,20,20l0,0l0,0h42.9l0,0c0-11.4,9.5-20,20-21c11.4,0,20,9.5,20,20
		l0,0l0,0h4.8h4.8c2.9,0,5.7-1,7.6-2.9h1.9c1.9,0,3.8-1.9,3.8-3.8v-9.5c0-1,0-1,0-1.9v-10.5c0-1,0-1,0-1.9l0,0l0,0H63.4V108.5z
		 M56.7,98H19.5c1-16.2,4.8-24.8,4.8-24.8c0-1,0-1.9,0-2.9h32.4c1,0,1.9,1,1.9,2.9v21.9C59.5,96.1,58.6,98,56.7,98z"/>
	<path fill="#2BA6CB" d="M189.1,108.5V55.1c0-3.8-3.8-6.7-7.6-6.7H73.8c-3.8,0-7.6,2.9-7.6,6.7v53.3H189.1L189.1,108.5z"/>
</g>
</svg>
