<?xml version="1.0" encoding="utf-8"?>
<!-- Generator: Adobe Illustrator 16.0.0, SVG Export Plug-In . SVG Version: 6.00 Build 0)  -->
<!DOCTYPE svg PUBLIC "-//W3C//DTD SVG 1.1//EN" "http://www.w3.org/Graphics/SVG/1.1/DTD/svg11.dtd">
<svg version="1.1" id="Layer_1" xmlns="http://www.w3.org/2000/svg" xmlns:xlink="http://www.w3.org/1999/xlink" x="0px" y="0px"
	 width="100px" height="100px" viewBox="0 0 100 100" enable-background="new 0 0 100 100" xml:space="preserve">
<path d="M52.88,76.665H8.047c-0.829,0-1.5,0.672-1.5,1.5v9.166c0,2.544,1.791,4.678,4.177,5.207
	c0.275,0.332,0.691,0.544,1.156,0.544h37.167c2.94,0,5.333-2.393,5.333-5.333c0-0.077-0.004-0.153-0.011-0.236
	c0.007-0.06,0.011-0.12,0.011-0.182v-9.166C54.38,77.337,53.708,76.665,52.88,76.665z"/>
<path d="M63.935,11.908l-10.583-3.5c-0.152-0.051-0.311-0.076-0.471-0.076H8.047c-0.829,0-1.5,0.672-1.5,1.5v24.5
	c0,0.828,0.671,1.5,1.5,1.5h11.806l-6.438,29.663l-5.939,2.45c-0.562,0.231-0.928,0.779-0.928,1.387v3.25c0,0.828,0.671,1.5,1.5,1.5
	H52.88c0.829,0,1.5-0.672,1.5-1.5v-4c0-0.72-0.512-1.339-1.219-1.474l-13.03-2.485l1.462-11.373l3.479-1.548
	c0.445-0.197,0.766-0.6,0.861-1.077l2.5-12.572c0.158-0.794-0.342-1.569-1.129-1.753l-2.092-0.491v-0.767l7.708-0.211
	c0.32-0.009,0.629-0.119,0.881-0.316l10.583-8.25c0.364-0.284,0.578-0.721,0.578-1.183v-11.75
	C64.963,12.686,64.549,12.111,63.935,11.908z"/>
<path d="M74.463,11.832h-5.75c-0.829,0-1.5,0.672-1.5,1.5v11c0,0.828,0.671,1.5,1.5,1.5h5.75c0.829,0,1.5-0.672,1.5-1.5v-11
	C75.963,12.504,75.292,11.832,74.463,11.832z"/>
<path d="M96.463,17.332c-0.002,0-0.005,0-0.007,0l-15.993,0.076v-1.076c0-0.828-0.671-1.5-1.5-1.5s-1.5,0.672-1.5,1.5v5.166
	c0,0.828,0.671,1.5,1.5,1.5s1.5-0.672,1.5-1.5v-1.09l16.007-0.076c0.828-0.004,1.497-0.679,1.493-1.507
	C97.959,17.999,97.289,17.332,96.463,17.332z"/>
</svg>
