<?xml version="1.0" encoding="utf-8"?>
<!-- Generator: Adobe Illustrator 18.0.0, SVG Export Plug-In . SVG Version: 6.00 Build 0)  -->
<!DOCTYPE svg PUBLIC "-//W3C//DTD SVG 1.1//EN" "http://www.w3.org/Graphics/SVG/1.1/DTD/svg11.dtd">
<svg version="1.1" id="Layer_2" xmlns="http://www.w3.org/2000/svg" xmlns:xlink="http://www.w3.org/1999/xlink" x="0px" y="0px"
	 viewBox="0 0 300 300" enable-background="new 0 0 300 300" xml:space="preserve">
<path d="M107.876,92.07c-1.162-2.02-1.162-4.481,0-6.494l36.495-63.223c2.318-4.02,8.929-4.02,11.247,0l36.501,63.223
	c1.162,2.013,1.162,4.474,0,6.494c-1.162,2.013-3.305,3.247-5.624,3.247H113.5C111.181,95.317,109.039,94.083,107.876,92.07z
	 M62.322,183.957H237.68c2.325,0,4.468-1.234,5.624-3.247c1.162-2.013,1.162-4.481,0-6.494l-31.845-55.158
	c-1.162-2.013-3.305-3.247-5.624-3.247H94.181c-2.318,0-4.468,1.234-5.624,3.247l-31.852,55.158c-1.162,2.013-1.162,4.481,0,6.494
	C57.855,182.716,59.998,183.957,62.322,183.957z M299.131,270.921l-36.501-63.217c-1.162-2.013-3.305-3.247-5.624-3.247H42.997
	c-2.318,0-4.468,1.234-5.624,3.247L0.872,270.921c-1.162,2.013-1.162,4.481,0,6.494c1.162,2.013,3.305,3.247,5.624,3.247h287.011
	c2.318,0,4.468-1.234,5.624-3.247C300.286,275.402,300.293,272.928,299.131,270.921z"/>
</svg>
