<?xml version="1.0" encoding="utf-8"?>
<!-- Generator: Adobe Illustrator 18.0.0, SVG Export Plug-In . SVG Version: 6.00 Build 0)  -->
<!DOCTYPE svg PUBLIC "-//W3C//DTD SVG 1.1//EN" "http://www.w3.org/Graphics/SVG/1.1/DTD/svg11.dtd">
<svg version="1.1" id="Capa_1" xmlns="http://www.w3.org/2000/svg" xmlns:xlink="http://www.w3.org/1999/xlink" x="0px" y="0px"
	 viewBox="0.5 7.5 21 21" enable-background="new 0.5 7.5 21 21" xml:space="preserve">
<g>
	<circle cx="6.8" cy="22.3" r="1.9"/>
	<circle cx="15.7" cy="22.3" r="1.9"/>
	<path d="M7.1,18.1V13H5.6H4.2c-0.8,0-1.4,0.6-1.4,1.4c0,0-0.5,1-0.5,2.9l0,0v0.4L1.9,18v0c0,0,0,0,0,0c-0.1,0-0.2,0.3-0.2,0.6
		c0,0.3,0.1,0.6,0.2,0.6c0,0,0,0,0,0v0l0.4,0.3v1c0,0.1,0,0.1,0,0.2C2.1,20.8,2,21,2,21.2v0.5c0,0.2,0.2,0.4,0.4,0.4h1.8
		c0.1,0,0.2-0.1,0.3-0.1h0.3h0c0-1.2,1-2.1,2.1-2.2c1.2,0,2.1,1,2.1,2.1v0h0h4.5h0c0-1.2,1-2.1,2.1-2.2c1.2,0,2.1,1,2.1,2.1v0h0h0.5
		h0.5c0.3,0,0.6-0.1,0.8-0.3h0.2c0.2,0,0.4-0.2,0.4-0.4v-1c0-0.1,0-0.1,0-0.2v-1.1c0-0.1,0-0.1,0-0.2h0v0H7.1V18.1z M6.4,17H2.5
		C2.6,15.3,3,14.4,3,14.4c0-0.1,0-0.2,0-0.3h3.4c0.1,0,0.2,0.1,0.2,0.3l0,2.3C6.7,16.8,6.6,17,6.4,17z"/>
	<path d="M20.3,18.1l0-5.6c0-0.4-0.4-0.7-0.8-0.7l-11.3,0c-0.4,0-0.8,0.3-0.8,0.7l0,5.6L20.3,18.1L20.3,18.1z"/>
</g>
</svg>
