<?xml version="1.0" encoding="utf-8"?>
<!-- Generator: Adobe Illustrator 18.0.0, SVG Export Plug-In . SVG Version: 6.00 Build 0)  -->
<!DOCTYPE svg PUBLIC "-//W3C//DTD SVG 1.1//EN" "http://www.w3.org/Graphics/SVG/1.1/DTD/svg11.dtd">
<svg version="1.1" id="Layer_1" xmlns="http://www.w3.org/2000/svg" xmlns:xlink="http://www.w3.org/1999/xlink" x="0px" y="0px"
	 viewBox="0 0 100 100" enable-background="new 0 0 100 100" xml:space="preserve">
<path fill="#EDEDED" d="M52.9,76.7H8c-0.8,0-1.5,0.7-1.5,1.5v9.2c0,2.5,1.8,4.7,4.2,5.2c0.3,0.3,0.7,0.5,1.2,0.5H49
	c2.9,0,5.3-2.4,5.3-5.3c0-0.1,0-0.2,0-0.2c0-0.1,0-0.1,0-0.2v-9.2C54.4,77.3,53.7,76.7,52.9,76.7z"/>
<path fill="#EDEDED" d="M63.9,11.9L53.4,8.4c-0.2-0.1-0.3-0.1-0.5-0.1H8C7.2,8.3,6.5,9,6.5,9.8v24.5c0,0.8,0.7,1.5,1.5,1.5h11.8
	l-6.4,29.7l-5.9,2.4c-0.6,0.2-0.9,0.8-0.9,1.4v3.3c0,0.8,0.7,1.5,1.5,1.5h44.8c0.8,0,1.5-0.7,1.5-1.5v-4c0-0.7-0.5-1.3-1.2-1.5
	l-13-2.5l1.5-11.4l3.5-1.5c0.4-0.2,0.8-0.6,0.9-1.1l2.5-12.6c0.2-0.8-0.3-1.6-1.1-1.8l-2.1-0.5V35l7.7-0.2c0.3,0,0.6-0.1,0.9-0.3
	l10.6-8.3c0.4-0.3,0.6-0.7,0.6-1.2V13.3C65,12.7,64.5,12.1,63.9,11.9z"/>
<path fill="#EDEDED" d="M74.5,11.8h-5.8c-0.8,0-1.5,0.7-1.5,1.5v11c0,0.8,0.7,1.5,1.5,1.5h5.8c0.8,0,1.5-0.7,1.5-1.5v-11
	C76,12.5,75.3,11.8,74.5,11.8z"/>
<path fill="#EDEDED" d="M96.5,17.3C96.5,17.3,96.5,17.3,96.5,17.3l-16,0.1v-1.1c0-0.8-0.7-1.5-1.5-1.5s-1.5,0.7-1.5,1.5v5.2
	c0,0.8,0.7,1.5,1.5,1.5s1.5-0.7,1.5-1.5v-1.1l16-0.1c0.8,0,1.5-0.7,1.5-1.5C98,18,97.3,17.3,96.5,17.3z"/>
</svg>
