<?xml version="1.0" encoding="utf-8"?>
<!-- Generator: Adobe Illustrator 18.0.0, SVG Export Plug-In . SVG Version: 6.00 Build 0)  -->
<!DOCTYPE svg PUBLIC "-//W3C//DTD SVG 1.1//EN" "http://www.w3.org/Graphics/SVG/1.1/DTD/svg11.dtd">
<svg version="1.1" id="Layer_1" xmlns="http://www.w3.org/2000/svg" xmlns:xlink="http://www.w3.org/1999/xlink" x="0px" y="0px"
	 viewBox="0 0 32 32" enable-background="new 0 0 32 32" xml:space="preserve">
<path fill="#EDEDED" d="M28.7,10.6h-7.9c-0.4-0.9-0.4-1.8-0.1-2.7c0.5-1.6,1.4-4.5-1.2-6.5c-0.8-0.6-1.8-0.9-2.9-0.9
	c-1.6,0-3,0.7-3.9,2c-1.6,2.2-1.9,4.1-1.8,6.5c0,1.1-0.2,1.5-0.2,1.5l-4.4,0c-3.3,0-5.7,1.9-6,4.8c-0.1,1.6-0.1,3,0.1,4.9
	c0.3,2.2,0.6,4.1,1,5.2C2,27.8,4.2,30.2,7,30.2l21.7,0c0.8,0,1.6-0.3,2.2-0.9c0.6-0.6,0.9-1.4,0.9-2.2V13.5
	C31.8,11.8,30.4,10.6,28.7,10.6z M19.5,25.6c-0.4,1-1.4,2.1-2.2,2.1H7c-0.7,0-1.5-0.3-2-0.8c0,0,0,0,0,0c-1.3-1.3,0.1-1.8,0.8-1.9
	c0.2,0,0.3-0.2,0.4-0.4l0-0.1c0-0.1,0-0.2-0.1-0.3C6,24.1,5.9,24,5.8,24C4,24,3,23.7,3.1,22.6c0.3-0.5,1.2-0.9,1.8-1.1
	c0.3-0.1,0.5-0.3,0.5-0.6v-0.2c0-0.3-0.2-0.5-0.5-0.5H4.8c-1.4,0-1.9-0.4-2.1-0.8c-0.1-0.3-0.2-0.3-0.1-0.8c0.2-1.1,1.5-1.3,2.3-1.4
	c0.3,0,0.5-0.3,0.5-0.6v-0.1c0-0.3-0.2-0.6-0.5-0.6c-2.4-0.2-1.9-1.5-1.9-1.6h0c0,0,0,0,0,0l0,0l0,0C3.7,13.2,5.5,13,6.1,13h4.2
	c0,0,0.1,0,0.2,0c0.7,0,1.3-0.2,1.8-0.7c0.7-0.7,1-1.8,0.9-3.3c-0.1-2.1,0.1-3.4,1.4-5c0.8-1.1,2.4-1.3,3.4-0.5
	c0.8,0.6,0.7,1.3,0.3,3.8c-0.6,5,1.8,7.4,2.3,12.2C20.8,21.8,20,24.2,19.5,25.6z M29.2,15.1h-5.2c-0.7,0-1.3-0.6-1.3-1.3
	c0-0.7,0.6-1.3,1.3-1.3h5.2c0.7,0,1.3,0.6,1.3,1.3C30.5,14.5,29.9,15.1,29.2,15.1z"/>
</svg>
