<?xml version="1.0" encoding="utf-8"?>
<!-- Generator: Adobe Illustrator 18.0.0, SVG Export Plug-In . SVG Version: 6.00 Build 0)  -->
<!DOCTYPE svg PUBLIC "-//W3C//DTD SVG 1.1//EN" "http://www.w3.org/Graphics/SVG/1.1/DTD/svg11.dtd">
<svg version="1.1" id="Layer_2" xmlns="http://www.w3.org/2000/svg" xmlns:xlink="http://www.w3.org/1999/xlink" x="0px" y="0px"
	 viewBox="0 0 200 200" enable-background="new 0 0 200 200" xml:space="preserve">
<path fill="#EDEDED" d="M71.9,61.4c-0.8-1.3-0.8-3,0-4.3l24.3-42.1c1.5-2.7,6-2.7,7.5,0l24.3,42.1c0.8,1.3,0.8,3,0,4.3
	c-0.8,1.3-2.2,2.2-3.7,2.2H75.7C74.1,63.5,72.7,62.7,71.9,61.4z M41.5,122.6h116.9c1.5,0,3-0.8,3.7-2.2c0.8-1.3,0.8-3,0-4.3
	L141,79.4c-0.8-1.3-2.2-2.2-3.7-2.2H62.8c-1.5,0-3,0.8-3.7,2.2l-21.2,36.8c-0.8,1.3-0.8,3,0,4.3C38.6,121.8,40,122.6,41.5,122.6z
	 M199.4,180.6l-24.3-42.1c-0.8-1.3-2.2-2.2-3.7-2.2H28.7c-1.5,0-3,0.8-3.7,2.2L0.6,180.6c-0.8,1.3-0.8,3,0,4.3
	c0.8,1.3,2.2,2.2,3.7,2.2h191.3c1.5,0,3-0.8,3.7-2.2C200.2,183.6,200.2,182,199.4,180.6z"/>
</svg>
